<?xml version="1.0" encoding="UTF-8"?>
<!DOCTYPE svg PUBLIC "-//W3C//DTD SVG 1.1//EN" "http://www.w3.org/Graphics/SVG/1.1/DTD/svg11.dtd">
<svg xmlns="http://www.w3.org/2000/svg" version="1.1" width="64px" height="64px" style="shape-rendering:geometricPrecision; text-rendering:geometricPrecision; image-rendering:optimizeQuality; fill-rule:evenodd; clip-rule:evenodd" xmlns:xlink="http://www.w3.org/1999/xlink">
<g><path style="opacity:0.989" fill="#7328ff" d="M 25.5,-0.5 C 29.5,-0.5 33.5,-0.5 37.5,-0.5C 51.1667,3.16667 59.8333,11.8333 63.5,25.5C 63.5,29.5 63.5,33.5 63.5,37.5C 59.8333,51.1667 51.1667,59.8333 37.5,63.5C 33.5,63.5 29.5,63.5 25.5,63.5C 11.8333,59.8333 3.16667,51.1667 -0.5,37.5C -0.5,33.5 -0.5,29.5 -0.5,25.5C 3.16667,11.8333 11.8333,3.16667 25.5,-0.5 Z"/></g>
<g><path style="opacity:1" fill="#fefeff" d="M 26.5,11.5 C 37.5311,9.59729 45.3644,13.5973 50,23.5C 51.346,29.4342 51.846,35.2675 51.5,41C 49.2977,44.3984 46.631,47.3984 43.5,50C 35.1047,52.1256 26.7713,51.959 18.5,49.5C 16.3333,47.1667 14.1667,44.8333 12,42.5C 11.0445,36.295 11.3778,29.9617 13,23.5C 15.8145,17.5142 20.3145,13.5142 26.5,11.5 Z"/></g>
<g><path style="opacity:1" fill="#7d38ff" d="M 20.5,35.5 C 24.4909,35.6478 25.3243,37.3145 23,40.5C 21.1079,39.3826 20.2746,37.7159 20.5,35.5 Z"/></g>
<g><path style="opacity:1" fill="#7933ff" d="M 39.5,35.5 C 40.5,35.5 41.5,35.5 42.5,35.5C 42.7254,37.7159 41.8921,39.3826 40,40.5C 38.2116,38.9769 38.0449,37.3102 39.5,35.5 Z"/></g>
<g><path style="opacity:1" fill="#762eff" d="M 29.5,39.5 C 36.8211,40.3193 38.1545,43.486 33.5,49C 26.075,48.4845 24.7416,45.3178 29.5,39.5 Z"/></g>
</svg>
